<svg width="151" height="30" viewBox="0 0 151 30" fill="none" xmlns="http://www.w3.org/2000/svg">
<g clip-path="url(#clip0_1_1606)">
<path d="M23.1902 4.11739C23.1908 7.17766 22.5915 10.2084 21.4261 13.038L21.3141 13.3022C20.1534 16.0248 18.4849 18.5015 16.3978 20.6C14.2471 22.7629 11.6906 24.4802 8.875 25.6533L8.61087 25.762C5.87328 26.8618 2.95026 27.4267 0 27.4261L0 21.2174C2.16418 21.2177 4.30835 20.803 6.3163 19.9957L6.51087 19.9163C8.51108 19.083 10.3336 17.8751 11.8804 16.3576L12.0304 16.2098C13.5615 14.6701 14.7855 12.8529 15.637 10.8554L15.7185 10.662C15.9 10.2185 16.0641 9.77065 16.2076 9.31413H5.17065V4.11848L23.1902 4.11739ZM20.9957 18.6609C21.4746 18.1784 22.0442 17.7955 22.6718 17.5342C23.2993 17.2729 23.9724 17.1384 24.6522 17.1384C25.332 17.1384 26.005 17.2729 26.6326 17.5342C27.2601 17.7955 27.8298 18.1784 28.3087 18.6609L33.3 23.6772L29.6435 27.3522L20.9957 18.6598V18.6609ZM56.7304 22.587C54.6207 23.4391 52.6522 23.9261 50.8261 24.0478C49.0206 24.1891 47.387 24.0272 45.9261 23.5609C44.4652 23.0739 43.2174 22.3435 42.1826 21.3696C41.1497 20.3984 40.3397 19.2146 39.8087 17.9C39.2609 16.5609 38.987 15.1 38.987 13.5174C38.987 11.9554 39.2402 10.5141 39.7478 9.19565C40.2314 7.8934 40.9891 6.7102 41.9696 5.72609C42.9641 4.75217 44.1609 3.9913 45.5609 3.44348C46.9609 2.89565 48.5533 2.63152 50.3391 2.65217C52.125 2.65217 54.0826 2.97717 56.213 3.62609V8.76957C54.5283 8.1 52.9663 7.71522 51.5261 7.61304C50.1054 7.51196 48.8576 7.66413 47.7826 8.06957C46.7283 8.475 45.8957 9.12391 45.287 10.0174C44.6989 10.8902 44.4043 11.9848 44.4043 13.3043C44.4043 14.4609 44.6174 15.4859 45.0435 16.3783C45.4891 17.2707 46.1087 17.9707 46.9 18.4783C47.6913 18.9859 48.5946 19.2391 49.6087 19.2391C49.9533 19.2391 50.2989 19.2283 50.6435 19.2087C50.988 19.1685 51.3228 19.1076 51.6478 19.0261V15.8H48.2391V11.2652H56.7304V22.587ZM68.1804 24.1696C66.6989 24.1696 65.3293 23.9054 64.0717 23.3783C62.8408 22.8494 61.7322 22.0724 60.8152 21.0957C59.8879 20.0989 59.1643 18.9307 58.6848 17.6565C58.1772 16.3174 57.9239 14.8663 57.9239 13.3043C57.9239 11.7424 58.1772 10.3011 58.6848 8.98261C59.1913 7.66413 59.9022 6.52717 60.8152 5.57391C61.7281 4.60004 62.8384 3.83221 64.0717 3.32174C65.3293 2.77391 66.6989 2.5 68.1804 2.5C69.6609 2.5 71.0206 2.77391 72.2587 3.32174C73.492 3.83227 74.6023 4.60009 75.5152 5.57391C76.4478 6.52717 77.1685 7.66413 77.6761 8.98261C78.1826 10.3011 78.437 11.7424 78.437 13.3043C78.437 14.8663 78.1826 16.3174 77.6761 17.6565C77.1935 18.9361 76.4586 20.1056 75.5152 21.0957C74.5982 22.0723 73.4896 22.8494 72.2587 23.3783C71.0206 23.9054 69.6609 24.1696 68.1804 24.1696ZM68.1804 19.2391C69.175 19.2391 70.0261 18.9957 70.737 18.5087C71.4467 18.0011 71.9946 17.3022 72.3804 16.4087C72.7859 15.5163 72.9891 14.4815 72.9891 13.3043C72.9891 12.1272 72.7859 11.1033 72.3804 10.2304C71.9946 9.35761 71.4467 8.67826 70.737 8.1913C70.0261 7.6837 69.1739 7.43043 68.1804 7.43043C67.2065 7.43043 66.3543 7.67391 65.6239 8.16087C64.913 8.64783 64.3554 9.33804 63.95 10.2304C63.5641 11.1033 63.3717 12.1272 63.3717 13.3043C63.3717 14.4815 63.5641 15.5163 63.95 16.4087C64.3554 17.3011 64.913 18.0011 65.6239 18.5087C66.3543 18.9957 67.2065 19.2391 68.1804 19.2391ZM77.1652 23.6826C78.2196 20.2739 79.275 16.8239 80.3304 13.3348C81.4065 9.84565 82.4717 6.39565 83.5261 2.98696H90.8C91.8543 6.39565 92.9109 9.84565 93.9652 13.3348C95.0413 16.8239 96.1065 20.2739 97.1609 23.6826H91.8043C91.6023 23.0361 91.4095 22.3868 91.2261 21.7348C91.0454 21.0719 90.8527 20.4123 90.6478 19.7565H83.6783C83.4734 20.4123 83.2806 21.0719 83.1 21.7348C82.9166 22.3868 82.7238 23.0361 82.5217 23.6826H77.1652ZM85.0174 15.2217H89.3087C88.9602 14.0126 88.6051 12.8053 88.2435 11.6C87.8783 10.3826 87.5239 9.17609 87.1783 7.97826C86.8289 9.19024 86.4636 10.3976 86.0826 11.6C85.7174 12.8174 85.363 14.0239 85.0174 15.2217ZM97.5163 23.6826V2.98696H102.842V18.8435H109.325V23.6826H97.5163ZM110.141 23.6826V18.9957C111.541 17.1293 112.961 15.2424 114.402 13.3348C115.826 11.4502 117.246 9.56319 118.663 7.67391H110.141V2.98696H124.902V7.67391C123.485 9.56319 122.065 11.4502 120.641 13.3348C119.2 15.2424 117.78 17.1283 116.38 18.9957H124.902V23.6826H110.141Z" fill="#D6F1CA"/>
</g>
<path d="M57.736 23.136C56.072 23.808 54.52 24.192 53.08 24.288C51.656 24.4 50.368 24.272 49.216 23.904C48.064 23.52 47.08 22.944 46.264 22.176C45.448 21.408 44.824 20.496 44.392 19.44C43.96 18.384 43.744 17.232 43.744 15.984C43.744 14.752 43.944 13.616 44.344 12.576C44.744 11.52 45.328 10.608 46.096 9.84C46.88 9.072 47.824 8.472 48.928 8.04C50.032 7.608 51.288 7.4 52.696 7.416C54.104 7.416 55.648 7.672 57.328 8.184C57.328 8.856 57.328 9.536 57.328 10.224C57.328 10.896 57.328 11.568 57.328 12.24C56 11.712 54.768 11.408 53.632 11.328C52.512 11.248 51.528 11.368 50.68 11.688C49.848 12.008 49.192 12.52 48.712 13.224C48.248 13.912 48.016 14.776 48.016 15.816C48.016 16.728 48.184 17.536 48.52 18.24C48.872 18.944 49.36 19.496 49.984 19.896C50.608 20.296 51.32 20.496 52.12 20.496C52.392 20.496 52.664 20.488 52.936 20.472C53.208 20.44 53.472 20.392 53.728 20.328C53.728 19.912 53.728 19.488 53.728 19.056C53.728 18.624 53.728 18.2 53.728 17.784C53.28 17.784 52.832 17.784 52.384 17.784C51.936 17.784 51.488 17.784 51.04 17.784C51.04 17.192 51.04 16.6 51.04 16.008C51.04 15.4 51.04 14.8 51.04 14.208C52.144 14.208 53.256 14.208 54.376 14.208C55.512 14.208 56.632 14.208 57.736 14.208C57.736 15.68 57.736 17.168 57.736 18.672C57.736 20.176 57.736 21.664 57.736 23.136ZM60.7788 24C60.7788 21.312 60.7788 18.592 60.7788 15.84C60.7788 13.088 60.7788 10.368 60.7788 7.68C61.4828 7.68 62.1868 7.68 62.8908 7.68C63.5948 7.68 64.2908 7.68 64.9788 7.68C64.9788 9.744 64.9788 11.832 64.9788 13.944C64.9788 16.04 64.9788 18.12 64.9788 20.184C65.8268 20.184 66.6828 20.184 67.5468 20.184C68.4108 20.184 69.2588 20.184 70.0908 20.184C70.0908 20.808 70.0908 21.448 70.0908 22.104C70.0908 22.744 70.0908 23.376 70.0908 24C68.5548 24 67.0028 24 65.4348 24C63.8668 24 62.3148 24 60.7788 24ZM79.4179 24.384C78.2499 24.384 77.1699 24.176 76.1779 23.76C75.1859 23.328 74.3299 22.728 73.6099 21.96C72.8899 21.192 72.3299 20.288 71.9299 19.248C71.5299 18.192 71.3299 17.048 71.3299 15.816C71.3299 14.584 71.5299 13.448 71.9299 12.408C72.3299 11.368 72.8899 10.472 73.6099 9.72C74.3299 8.952 75.1859 8.36 76.1779 7.944C77.1699 7.512 78.2499 7.296 79.4179 7.296C80.5859 7.296 81.6579 7.512 82.6339 7.944C83.6259 8.36 84.4819 8.952 85.2019 9.72C85.9379 10.472 86.5059 11.368 86.9059 12.408C87.3059 13.448 87.5059 14.584 87.5059 15.816C87.5059 17.048 87.3059 18.192 86.9059 19.248C86.5059 20.288 85.9379 21.192 85.2019 21.96C84.4819 22.728 83.6259 23.328 82.6339 23.76C81.6579 24.176 80.5859 24.384 79.4179 24.384ZM79.4179 20.496C80.2019 20.496 80.8739 20.304 81.4339 19.92C81.9939 19.52 82.4259 18.968 82.7299 18.264C83.0499 17.56 83.2099 16.744 83.2099 15.816C83.2099 14.888 83.0499 14.08 82.7299 13.392C82.4259 12.704 81.9939 12.168 81.4339 11.784C80.8739 11.384 80.2019 11.184 79.4179 11.184C78.6499 11.184 77.9779 11.376 77.4019 11.76C76.8419 12.144 76.4019 12.688 76.0819 13.392C75.7779 14.08 75.6259 14.888 75.6259 15.816C75.6259 16.744 75.7779 17.56 76.0819 18.264C76.4019 18.968 76.8419 19.52 77.4019 19.92C77.9779 20.304 78.6499 20.496 79.4179 20.496ZM89.8178 24C89.8178 21.312 89.8178 18.592 89.8178 15.84C89.8178 13.088 89.8178 10.368 89.8178 7.68C90.7778 7.68 91.7378 7.68 92.6978 7.68C93.6738 7.68 94.6418 7.68 95.6018 7.68C96.8178 7.68 97.8818 7.912 98.7938 8.376C99.7058 8.824 100.41 9.464 100.906 10.296C101.418 11.112 101.674 12.072 101.674 13.176C101.674 14.12 101.482 14.96 101.098 15.696C100.714 16.432 100.194 17.032 99.5378 17.496C100.178 18.568 100.818 19.656 101.458 20.76C102.114 21.848 102.762 22.928 103.402 24C102.618 24 101.834 24 101.05 24C100.266 24 99.4818 24 98.6978 24C98.2018 23.104 97.6978 22.192 97.1858 21.264C96.6898 20.336 96.1858 19.424 95.6738 18.528C95.4018 18.528 95.1218 18.528 94.8338 18.528C94.5618 18.528 94.2898 18.528 94.0178 18.528C94.0178 19.424 94.0178 20.336 94.0178 21.264C94.0178 22.192 94.0178 23.104 94.0178 24C93.3298 24 92.6338 24 91.9298 24C91.2258 24 90.5218 24 89.8178 24ZM95.6018 11.472C95.3458 11.472 95.0818 11.472 94.8098 11.472C94.5538 11.472 94.2898 11.472 94.0178 11.472C94.0178 12.064 94.0178 12.656 94.0178 13.248C94.0178 13.84 94.0178 14.432 94.0178 15.024C94.3218 15.024 94.6258 15.024 94.9298 15.024C95.2338 15.024 95.5378 15.024 95.8418 15.024C96.3218 15.024 96.7138 14.856 97.0178 14.52C97.3218 14.168 97.4738 13.744 97.4738 13.248C97.4738 12.736 97.3058 12.312 96.9698 11.976C96.6498 11.64 96.1938 11.472 95.6018 11.472ZM107.643 24C107.643 23.024 107.643 22.04 107.643 21.048C107.643 20.056 107.643 19.072 107.643 18.096C106.795 16.384 105.931 14.648 105.051 12.888C104.171 11.128 103.307 9.392 102.459 7.68C103.195 7.68 103.939 7.68 104.691 7.68C105.443 7.68 106.187 7.68 106.923 7.68C107.387 8.656 107.859 9.64 108.339 10.632C108.835 11.608 109.315 12.584 109.779 13.56C110.243 12.584 110.715 11.608 111.195 10.632C111.675 9.64 112.147 8.656 112.611 7.68C113.347 7.68 114.083 7.68 114.819 7.68C115.555 7.68 116.291 7.68 117.027 7.68C116.179 9.392 115.315 11.128 114.435 12.888C113.555 14.648 112.691 16.384 111.843 18.096C111.843 19.072 111.843 20.056 111.843 21.048C111.843 22.04 111.843 23.024 111.843 24C111.155 24 110.459 24 109.755 24C109.051 24 108.347 24 107.643 24ZM123.617 19.464C124.449 19.848 125.273 20.096 126.089 20.208C126.905 20.304 127.649 20.272 128.321 20.112C128.993 19.936 129.537 19.632 129.953 19.2C130.385 18.752 130.633 18.176 130.697 17.472C130.121 17.92 129.465 18.224 128.729 18.384C128.009 18.544 127.281 18.56 126.545 18.432C125.809 18.304 125.121 18.032 124.481 17.616C123.857 17.184 123.353 16.608 122.969 15.888C122.585 15.152 122.393 14.264 122.393 13.224C122.393 12.392 122.537 11.624 122.825 10.92C123.113 10.2 123.521 9.576 124.049 9.048C124.593 8.504 125.241 8.088 125.993 7.8C126.745 7.496 127.585 7.344 128.513 7.344C129.441 7.344 130.289 7.512 131.057 7.848C131.841 8.184 132.513 8.688 133.073 9.36C133.649 10.016 134.089 10.84 134.393 11.832C134.713 12.824 134.873 13.976 134.873 15.288C134.873 16.696 134.697 17.944 134.345 19.032C133.993 20.104 133.489 21.016 132.833 21.768C132.177 22.504 131.385 23.072 130.457 23.472C129.529 23.856 128.489 24.064 127.337 24.096C126.185 24.128 124.945 23.968 123.617 23.616C123.617 22.928 123.617 22.24 123.617 21.552C123.617 20.848 123.617 20.152 123.617 19.464ZM128.537 11.112C127.945 11.112 127.465 11.304 127.097 11.688C126.729 12.056 126.545 12.544 126.545 13.152C126.545 13.76 126.729 14.256 127.097 14.64C127.465 15.008 127.945 15.192 128.537 15.192C129.113 15.192 129.577 15.016 129.929 14.664C130.297 14.296 130.481 13.816 130.481 13.224C130.481 12.6 130.297 12.096 129.929 11.712C129.577 11.312 129.113 11.112 128.537 11.112ZM143.236 24.336C142.18 24.336 141.212 24.128 140.332 23.712C139.452 23.28 138.692 22.68 138.052 21.912C137.428 21.144 136.94 20.24 136.588 19.2C136.252 18.16 136.084 17.032 136.084 15.816C136.084 14.6 136.252 13.48 136.588 12.456C136.94 11.416 137.428 10.52 138.052 9.768C138.692 9 139.452 8.408 140.332 7.992C141.212 7.56 142.18 7.344 143.236 7.344C144.292 7.344 145.252 7.56 146.116 7.992C146.996 8.408 147.756 9 148.396 9.768C149.036 10.52 149.524 11.416 149.86 12.456C150.212 13.48 150.388 14.6 150.388 15.816C150.388 17.032 150.212 18.16 149.86 19.2C149.524 20.24 149.036 21.144 148.396 21.912C147.756 22.68 146.996 23.28 146.116 23.712C145.252 24.128 144.292 24.336 143.236 24.336ZM143.236 20.376C143.876 20.376 144.412 20.192 144.844 19.824C145.292 19.44 145.636 18.904 145.876 18.216C146.116 17.528 146.236 16.728 146.236 15.816C146.236 14.904 146.116 14.112 145.876 13.44C145.636 12.752 145.292 12.224 144.844 11.856C144.412 11.488 143.876 11.304 143.236 11.304C142.612 11.304 142.076 11.488 141.628 11.856C141.18 12.224 140.836 12.744 140.596 13.416C140.356 14.088 140.236 14.888 140.236 15.816C140.236 16.728 140.356 17.528 140.596 18.216C140.836 18.904 141.18 19.44 141.628 19.824C142.076 20.192 142.612 20.376 143.236 20.376Z" fill="#D6F1CA"/>
<defs>
<clipPath id="clip0_1_1606">
<rect width="35" height="24" fill="white" transform="translate(0 3)"/>
</clipPath>
</defs>
</svg>
